<?xml version="1.0" encoding="utf-8"?>
<!-- Generator: Adobe Illustrator 17.0.0, SVG Export Plug-In . SVG Version: 6.00 Build 0)  -->
<!DOCTYPE svg PUBLIC "-//W3C//DTD SVG 1.1//EN" "http://www.w3.org/Graphics/SVG/1.1/DTD/svg11.dtd">
<svg version="1.1" id="Layer_1" xmlns="http://www.w3.org/2000/svg" xmlns:xlink="http://www.w3.org/1999/xlink" x="0px" y="0px"
	 width="80px" height="80px" viewBox="0 0 80 80" enable-background="new 0 0 80 80" xml:space="preserve">
<g>
	<circle fill="#F1C40F" cx="40" cy="40" r="40"/>
</g>
<g>
	<path fill="#FFFFFF" d="M30.669,60.274c-0.708,0-1.394-0.376-1.757-1.041c-0.529-0.97-0.173-2.185,0.797-2.714
		c0.208-0.114,5.173-2.794,10.292-2.794c5.119,0,10.083,2.68,10.292,2.794c0.969,0.529,1.326,1.744,0.796,2.714
		s-1.743,1.327-2.714,0.796c-0.04-0.021-4.295-2.304-8.375-2.304c-4.108,0-8.332,2.281-8.375,2.304
		C31.321,60.196,30.993,60.274,30.669,60.274z"/>
</g>
<g>
	<path fill="#FFFFFF" d="M26.778,39.185c-2.311,0-4.185-1.874-4.185-4.185l0,0c0-2.311,1.874-4.185,4.185-4.185
		s4.185,1.874,4.185,4.185l0,0C30.963,37.311,29.09,39.185,26.778,39.185z"/>
</g>
<g>
	<path fill="#FFFFFF" d="M51.888,39.185c-2.311,0-4.185-1.874-4.185-4.185l0,0c0-2.311,1.874-4.185,4.185-4.185
		s4.185,1.874,4.185,4.185l0,0C56.073,37.311,54.199,39.185,51.888,39.185z"/>
</g>
</svg>
