<?xml version="1.0" encoding="utf-8"?>
<!-- Generator: Adobe Illustrator 17.0.0, SVG Export Plug-In . SVG Version: 6.00 Build 0)  -->
<!DOCTYPE svg PUBLIC "-//W3C//DTD SVG 1.1//EN" "http://www.w3.org/Graphics/SVG/1.1/DTD/svg11.dtd">
<svg version="1.1" id="Layer_1" xmlns="http://www.w3.org/2000/svg" xmlns:xlink="http://www.w3.org/1999/xlink" x="0px" y="0px"
	 width="80px" height="80px" viewBox="0 0 80 80" enable-background="new 0 0 80 80" xml:space="preserve">
<g>
	<circle fill="#F1C40F" cx="40" cy="40" r="40"/>
</g>
<g>
	<g>
		<path fill="#FFFFFF" d="M25.333,30c-2.761,0-5,2.239-5,5v3c0,2.761,2.239,5,5,5s5-2.239,5-5v-3C30.333,32.239,28.095,30,25.333,30
			z"/>
	</g>
	<g>
		<path fill="#FFFFFF" d="M55.333,30c-2.761,0-5,2.239-5,5v3c0,2.761,2.239,5,5,5s5-2.239,5-5v-3C60.333,32.239,58.095,30,55.333,30
			z"/>
	</g>
</g>
<g>
	<path fill="#FFFFFF" d="M30.667,58.274c0,0,4.667,3.452,9.333,3.452s9.333-3.452,9.333-3.452S45.167,64.75,40,64.75
		S30.667,58.274,30.667,58.274z"/>
	<path fill="#FFFFFF" d="M40,66.75c-6.187,0-10.821-7.092-11.015-7.394c-0.522-0.812-0.39-1.881,0.314-2.541
		s1.779-0.722,2.557-0.149c0.039,0.029,4.211,3.06,8.144,3.06s8.105-3.03,8.147-3.062c0.779-0.57,1.854-0.506,2.555,0.154
		c0.703,0.66,0.836,1.728,0.313,2.538C50.821,59.658,46.187,66.75,40,66.75z"/>
</g>
</svg>
