<?xml version="1.0" encoding="utf-8"?>
<!-- Generator: Adobe Illustrator 17.0.0, SVG Export Plug-In . SVG Version: 6.00 Build 0)  -->
<!DOCTYPE svg PUBLIC "-//W3C//DTD SVG 1.1//EN" "http://www.w3.org/Graphics/SVG/1.1/DTD/svg11.dtd">
<svg version="1.1" id="Layer_1" xmlns="http://www.w3.org/2000/svg" xmlns:xlink="http://www.w3.org/1999/xlink" x="0px" y="0px"
	 width="80px" height="80px" viewBox="0 0 80 80" enable-background="new 0 0 80 80" xml:space="preserve">
<g>
	<circle fill="#F1C40F" cx="40" cy="40" r="40"/>
</g>
<g>
	<g>
		<path fill="#FFFFFF" d="M25.333,30c-2.761,0-5,2.239-5,5v2c0,2.761,2.239,5,5,5s5-2.239,5-5v-2C30.333,32.239,28.095,30,25.333,30
			z"/>
	</g>
	<g>
		<path fill="#FFFFFF" d="M55.333,30c-2.761,0-5,2.239-5,5v2c0,2.761,2.239,5,5,5s5-2.239,5-5v-2C60.333,32.239,58.095,30,55.333,30
			z"/>
	</g>
</g>
<g>
	<path fill="#FFFFFF" d="M49.333,61h-19c-1.104,0-2-0.896-2-2s0.896-2,2-2h19c1.104,0,2,0.896,2,2S50.438,61,49.333,61z"/>
</g>
</svg>
