<?xml version="1.0" encoding="utf-8"?>
<!-- Generator: Adobe Illustrator 17.0.0, SVG Export Plug-In . SVG Version: 6.00 Build 0)  -->
<!DOCTYPE svg PUBLIC "-//W3C//DTD SVG 1.1//EN" "http://www.w3.org/Graphics/SVG/1.1/DTD/svg11.dtd">
<svg version="1.1" id="Layer_1" xmlns="http://www.w3.org/2000/svg" xmlns:xlink="http://www.w3.org/1999/xlink" x="0px" y="0px"
	 width="80px" height="80px" viewBox="0 0 80 80" enable-background="new 0 0 80 80" xml:space="preserve">
<g>
	<circle fill="#F1C40F" cx="40" cy="40" r="40"/>
</g>
<g>
	<g>
		<path fill="#FFFFFF" d="M25.333,30c-2.761,0-5,2.239-5,5l0,0c0,2.761,2.239,5,5,5s5-2.239,5-5l0,0
			C30.333,32.239,28.095,30,25.333,30z"/>
	</g>
	<g>
		<path fill="#FFFFFF" d="M55.333,30c-2.761,0-5,2.239-5,5l0,0c0,2.761,2.239,5,5,5s5-2.239,5-5l0,0
			C60.333,32.239,58.095,30,55.333,30z"/>
	</g>
</g>
<g>
	<path fill="#FFFFFF" d="M30.669,63.274c-0.708,0-1.394-0.376-1.757-1.041c-0.529-0.97-0.173-2.185,0.797-2.714
		c0.208-0.114,5.173-2.794,10.292-2.794c4.518,0,9.095-0.438,9.141-0.441c1.098-0.111,2.077,0.698,2.183,1.798
		c0.106,1.1-0.698,2.077-1.798,2.183c-0.194,0.02-4.817,0.461-9.526,0.461c-4.108,0-8.332,2.281-8.375,2.304
		C31.321,63.196,30.993,63.274,30.669,63.274z"/>
</g>
</svg>
