<?xml version="1.0" encoding="utf-8"?>
<!-- Generator: Adobe Illustrator 17.0.0, SVG Export Plug-In . SVG Version: 6.00 Build 0)  -->
<!DOCTYPE svg PUBLIC "-//W3C//DTD SVG 1.1//EN" "http://www.w3.org/Graphics/SVG/1.1/DTD/svg11.dtd">
<svg version="1.1" id="Layer_1" xmlns="http://www.w3.org/2000/svg" xmlns:xlink="http://www.w3.org/1999/xlink" x="0px" y="0px"
	 width="80px" height="80px" viewBox="0 0 80 80" enable-background="new 0 0 80 80" xml:space="preserve">
<g>
	<circle fill="#F1C40F" cx="40" cy="40" r="40"/>
</g>
<g>
	<g>
		<path fill="#FFFFFF" d="M25.333,30c-2.761,0-5,2.239-5,5v3c0,2.761,2.239,5,5,5s5-2.239,5-5v-3C30.333,32.239,28.095,30,25.333,30
			z"/>
	</g>
	<g>
		<path fill="#FFFFFF" d="M55.333,30c-2.761,0-5,2.239-5,5v3c0,2.761,2.239,5,5,5s5-2.239,5-5v-3C60.333,32.239,58.095,30,55.333,30
			z"/>
	</g>
</g>
<g>
	<path fill="#FFFFFF" d="M28.667,56h22.667c0,0-1.554,8.476-11.333,8.476S28.667,56,28.667,56z"/>
	<path fill="#FFFFFF" d="M40,66.476c-9.054,0-12.659-6.616-13.3-10.115c-0.107-0.584,0.051-1.185,0.431-1.641
		c0.38-0.456,0.943-0.72,1.537-0.72h22.667c0.594,0,1.156,0.264,1.536,0.72s0.538,1.057,0.431,1.641
		C52.66,59.859,49.054,66.476,40,66.476z M31.542,58c1.114,1.987,3.499,4.476,8.458,4.476c4.951,0,7.338-2.498,8.454-4.476H31.542z"
		/>
</g>
</svg>
