<?xml version="1.0" encoding="utf-8"?>
<!-- Generator: Adobe Illustrator 17.0.0, SVG Export Plug-In . SVG Version: 6.00 Build 0)  -->
<!DOCTYPE svg PUBLIC "-//W3C//DTD SVG 1.1//EN" "http://www.w3.org/Graphics/SVG/1.1/DTD/svg11.dtd">
<svg version="1.1" id="Layer_1" xmlns="http://www.w3.org/2000/svg" xmlns:xlink="http://www.w3.org/1999/xlink" x="0px" y="0px"
	 width="80px" height="80px" viewBox="0 0 80 80" enable-background="new 0 0 80 80" xml:space="preserve">
<g>
	<circle fill="#F1C40F" cx="40" cy="40" r="40"/>
</g>
<g>
	<g>
		<path fill="#FFFFFF" d="M25.333,30c-2.761,0-5,2.239-5,5v3c0,2.761,2.239,5,5,5s5-2.239,5-5v-3C30.333,32.239,28.095,30,25.333,30
			z"/>
	</g>
	<g>
		<path fill="#FFFFFF" d="M55.333,30c-2.761,0-5,2.239-5,5v3c0,2.761,2.239,5,5,5s5-2.239,5-5v-3C60.333,32.239,58.095,30,55.333,30
			z"/>
	</g>
</g>
<g>
	<path fill="#FFFFFF" d="M40,65.726c-5.265,0-10.31-3.687-10.522-3.843c-0.888-0.657-1.075-1.909-0.418-2.798
		c0.656-0.888,1.908-1.076,2.796-0.42c0.097,0.071,4.24,3.061,8.145,3.061c3.288,0,6.994-2.208,8.144-3.06
		c0.89-0.657,2.141-0.47,2.798,0.419c0.656,0.889,0.469,2.141-0.419,2.798C50.31,62.039,45.265,65.726,40,65.726z"/>
</g>
</svg>
