<?xml version="1.0" encoding="utf-8"?>
<!-- Generator: Adobe Illustrator 17.0.0, SVG Export Plug-In . SVG Version: 6.00 Build 0)  -->
<!DOCTYPE svg PUBLIC "-//W3C//DTD SVG 1.1//EN" "http://www.w3.org/Graphics/SVG/1.1/DTD/svg11.dtd">
<svg version="1.1" id="Layer_1" xmlns="http://www.w3.org/2000/svg" xmlns:xlink="http://www.w3.org/1999/xlink" x="0px" y="0px"
	 width="47.8px" height="71.818px" viewBox="0 0 47.8 71.818" enable-background="new 0 0 47.8 71.818" xml:space="preserve">
<g>
	<path fill="#C03A2B" d="M47.8,48.118C47.8,24.179,29.127,0,24.1,0S0.4,24.179,0.4,48.118c0,13.089,10.611,23.7,23.7,23.7
		S47.8,61.207,47.8,48.118z"/>
	<path fill="#E64C3B" d="M23.7,0C18.7,0,0,24.179,0,48.118c0,13.089,10.7,23.7,23.7,23.7V0z"/>
	<path fill="#BCC2C6" d="M25.9,37.709c2.772,0,5.315,0.969,7.32,2.58c-2.144-2.668-5.43-4.38-9.12-4.38
		c-6.462,0-11.7,5.238-11.7,11.7c0,3.69,1.712,6.975,4.38,9.12c-1.611-2.005-2.58-4.548-2.58-7.32
		C14.2,42.947,19.438,37.709,25.9,37.709z"/>
	<path fill="#ECEFF0" d="M35.8,47.609c0-2.772-0.969-5.315-2.58-7.32c-2.005-1.611-4.548-2.58-7.32-2.58
		c-6.462,0-11.7,5.238-11.7,11.7c0,2.772,0.969,5.315,2.58,7.32c2.005,1.611,4.548,2.58,7.32,2.58
		C30.562,59.309,35.8,54.071,35.8,47.609z"/>
</g>
</svg>
